<svg aria-hidden="true" style="position: absolute; width: 0; height: 0; overflow: hidden;" version="1.1" xmlns="http://www.w3.org/2000/svg" xmlns:xlink="http://www.w3.org/1999/xlink">
<defs>
<symbol id="icon-facebook" viewBox="0 0 17 32">
<path fill="#696969" style="fill: var(--color1, #696969)" d="M5.387 30.28v-13.543h-4.575v-5.382h4.575v-4.24c0-4.607 2.839-7.115 6.984-7.115 1.986 0 3.692 0.148 4.187 0.213v4.814h-2.875c-2.255 0-2.69 1.065-2.69 2.62v3.708h5.087l-0.698 5.382h-4.39v13.543z"></path>
</symbol>
<symbol id="icon-linkedin" viewBox="0 0 30 32">
<path fill="#696969" style="fill: var(--color1, #696969)" d="M6.584 30.255h-6.098v-19.761h6.098v19.761zM3.532 7.798c-1.95 0-3.532-1.625-3.532-3.588s1.582-3.554 3.532-3.554c1.95 0 3.532 1.592 3.532 3.554s-1.582 3.588-3.532 3.588zM29.408 30.255h-6.085v-9.62c0-2.293-0.046-5.233-3.171-5.233-3.171 0-3.656 2.491-3.656 5.067v9.785h-6.092v-19.761h5.849v2.696h0.085c0.814-1.553 2.803-3.191 5.77-3.191 6.171 0 7.306 4.090 7.306 9.402v10.855h-0.006z"></path>
</symbol>
<symbol id="icon-pinterest" viewBox="0 0 26 32">
<path fill="#696969" style="fill: var(--color1, #696969)" d="M14.059 0.574c-6.533 0-12.99 4.056-12.99 10.621 0 4.175 2.522 6.547 4.050 6.547 0.63 0 0.993-1.637 0.993-2.099 0-0.552-1.509-1.726-1.509-4.021 0-4.768 3.897-8.148 8.94-8.148 4.336 0 7.545 2.295 7.545 6.512 0 3.149-1.356 9.056-5.75 9.056-1.585 0-2.942-1.067-2.942-2.597 0-2.242 1.681-4.412 1.681-6.725 0-3.926-5.979-3.214-5.979 1.53 0 0.996 0.134 2.099 0.611 3.007-0.879 3.523-2.674 8.771-2.674 12.4 0 1.121 0.172 2.224 0.287 3.345 0.216 0.225 0.108 0.202 0.439 0.089 3.209-4.092 3.095-4.893 4.546-10.248 0.783 1.388 2.808 2.135 4.413 2.135 6.762 0 9.8-6.138 9.8-11.671 0-5.889-5.463-9.732-11.461-9.732z"></path>
</symbol>
<symbol id="icon-twitter" viewBox="0 0 39 32">
<path fill="#696969" style="fill: var(--color1, #696969)" d="M34.377 7.987c0.023 0.322 0.023 0.643 0.023 0.965 0 9.813-7.582 21.119-21.441 21.119-4.27 0-8.236-1.218-11.572-3.332 0.607 0.069 1.19 0.092 1.82 0.092 3.523 0 6.766-1.172 9.355-3.171-3.313-0.069-6.089-2.206-7.046-5.148 0.467 0.069 0.933 0.115 1.423 0.115 0.677 0 1.353-0.092 1.983-0.253-3.453-0.689-6.043-3.677-6.043-7.285v-0.092c1.003 0.552 2.17 0.896 3.406 0.942-2.030-1.333-3.36-3.608-3.36-6.182 0-1.379 0.373-2.643 1.026-3.746 3.71 4.504 9.286 7.446 15.538 7.767-0.117-0.552-0.187-1.126-0.187-1.7 0-4.091 3.36-7.423 7.536-7.423 2.17 0 4.129 0.896 5.506 2.344 1.703-0.322 3.336-0.942 4.783-1.792-0.56 1.724-1.75 3.171-3.313 4.090 1.517-0.161 2.986-0.574 4.339-1.149-1.026 1.471-2.309 2.78-3.779 3.838z"></path>
</symbol>
</defs>
</svg>